<svg width="64" height="64" viewBox="0 0 64 64" fill="none" xmlns="http://www.w3.org/2000/svg">
<rect opacity="0.08" width="64" height="64" rx="32" fill="#27BBAD"/>
<path d="M34.9196 28.1208C34.9196 28.1208 33.5596 26.9208 31.1729 27.7608C28.9729 28.5208 29.0796 31.5342 32.4129 32.3342" stroke="#27BBAD" stroke-width="1.6" stroke-miterlimit="10" stroke-linecap="round" stroke-linejoin="round"/>
<path d="M29.6929 36.4952C29.6929 36.4952 31.0529 37.6952 33.4395 36.8552C35.6529 36.0819 35.5462 33.0686 32.1995 32.2686" stroke="#27BBAD" stroke-width="1.6" stroke-miterlimit="10" stroke-linecap="round" stroke-linejoin="round"/>
<path d="M32.5464 27.4681V25.5081" stroke="#27BBAD" stroke-width="1.6" stroke-miterlimit="10" stroke-linecap="round" stroke-linejoin="round"/>
<path d="M32.5464 39.1087V37.1487" stroke="#27BBAD" stroke-width="1.6" stroke-miterlimit="10" stroke-linecap="round" stroke-linejoin="round"/>
<path d="M32.3067 44.6133C39.1035 44.6133 44.6133 39.1035 44.6133 32.3067C44.6133 25.5099 39.1035 20 32.3067 20C25.5099 20 20 25.5099 20 32.3067C20 39.1035 25.5099 44.6133 32.3067 44.6133Z" stroke="#27BBAD" stroke-width="1.6" stroke-miterlimit="10" stroke-linecap="round" stroke-linejoin="round"/>
</svg>
